<mxfile host="app.diagrams.net" modified="2024-04-10T05:03:07.655Z" agent="Mozilla/5.0 (Windows NT 10.0; Win64; x64) AppleWebKit/537.36 (KHTML, like Gecko) Chrome/123.0.0.0 Safari/537.36" etag="wHF6wFcznamzLJ9qRBC4" version="24.2.3" type="device">
  <diagram name="Page-1" id="lpqfs2AbnJ4X-7rjABGT">
    <mxGraphModel dx="880" dy="508" grid="1" gridSize="10" guides="1" tooltips="1" connect="1" arrows="1" fold="1" page="1" pageScale="1" pageWidth="827" pageHeight="1169" math="0" shadow="0">
      <root>
        <mxCell id="0" />
        <mxCell id="1" parent="0" />
        <mxCell id="v_L5pMA24O0eJTsmIn7M-8" value="" style="edgeStyle=orthogonalEdgeStyle;rounded=0;orthogonalLoop=1;jettySize=auto;html=1;" edge="1" parent="1" source="v_L5pMA24O0eJTsmIn7M-1" target="v_L5pMA24O0eJTsmIn7M-3">
          <mxGeometry relative="1" as="geometry" />
        </mxCell>
        <mxCell id="v_L5pMA24O0eJTsmIn7M-1" value="start&lt;div&gt;&lt;br&gt;&lt;/div&gt;" style="rounded=1;whiteSpace=wrap;html=1;" vertex="1" parent="1">
          <mxGeometry x="260" y="10" width="120" height="60" as="geometry" />
        </mxCell>
        <mxCell id="v_L5pMA24O0eJTsmIn7M-2" value="end&lt;div&gt;&lt;br&gt;&lt;/div&gt;" style="rounded=1;whiteSpace=wrap;html=1;" vertex="1" parent="1">
          <mxGeometry x="260" y="555" width="120" height="60" as="geometry" />
        </mxCell>
        <mxCell id="v_L5pMA24O0eJTsmIn7M-9" value="" style="edgeStyle=orthogonalEdgeStyle;rounded=0;orthogonalLoop=1;jettySize=auto;html=1;" edge="1" parent="1" source="v_L5pMA24O0eJTsmIn7M-3" target="v_L5pMA24O0eJTsmIn7M-4">
          <mxGeometry relative="1" as="geometry" />
        </mxCell>
        <mxCell id="v_L5pMA24O0eJTsmIn7M-3" value="Enter Two No" style="shape=parallelogram;perimeter=parallelogramPerimeter;whiteSpace=wrap;html=1;fixedSize=1;" vertex="1" parent="1">
          <mxGeometry x="260" y="120" width="120" height="60" as="geometry" />
        </mxCell>
        <mxCell id="v_L5pMA24O0eJTsmIn7M-10" value="" style="edgeStyle=orthogonalEdgeStyle;rounded=0;orthogonalLoop=1;jettySize=auto;html=1;" edge="1" parent="1" source="v_L5pMA24O0eJTsmIn7M-4" target="v_L5pMA24O0eJTsmIn7M-5">
          <mxGeometry relative="1" as="geometry" />
        </mxCell>
        <mxCell id="v_L5pMA24O0eJTsmIn7M-4" value="Read A,B" style="shape=parallelogram;perimeter=parallelogramPerimeter;whiteSpace=wrap;html=1;fixedSize=1;" vertex="1" parent="1">
          <mxGeometry x="260" y="220" width="120" height="60" as="geometry" />
        </mxCell>
        <mxCell id="v_L5pMA24O0eJTsmIn7M-11" value="" style="edgeStyle=orthogonalEdgeStyle;rounded=0;orthogonalLoop=1;jettySize=auto;html=1;" edge="1" parent="1" source="v_L5pMA24O0eJTsmIn7M-5" target="v_L5pMA24O0eJTsmIn7M-6">
          <mxGeometry relative="1" as="geometry" />
        </mxCell>
        <mxCell id="v_L5pMA24O0eJTsmIn7M-5" value="C=A+B&lt;div&gt;&lt;br&gt;&lt;/div&gt;" style="whiteSpace=wrap;html=1;aspect=fixed;" vertex="1" parent="1">
          <mxGeometry x="280" y="330" width="80" height="80" as="geometry" />
        </mxCell>
        <mxCell id="v_L5pMA24O0eJTsmIn7M-12" value="" style="edgeStyle=orthogonalEdgeStyle;rounded=0;orthogonalLoop=1;jettySize=auto;html=1;" edge="1" parent="1" source="v_L5pMA24O0eJTsmIn7M-6" target="v_L5pMA24O0eJTsmIn7M-2">
          <mxGeometry relative="1" as="geometry" />
        </mxCell>
        <mxCell id="v_L5pMA24O0eJTsmIn7M-6" value="Sum is C&lt;div&gt;&lt;br&gt;&lt;/div&gt;" style="shape=parallelogram;perimeter=parallelogramPerimeter;whiteSpace=wrap;html=1;fixedSize=1;" vertex="1" parent="1">
          <mxGeometry x="260" y="450" width="120" height="60" as="geometry" />
        </mxCell>
      </root>
    </mxGraphModel>
  </diagram>
</mxfile>
